<svg xmlns="http://www.w3.org/2000/svg" viewBox="0 0 100 140">
  <!-- Tile background -->
  <rect width="100" height="140" rx="5" fill="#f8f3d6" stroke="#d4a762" stroke-width="2"/>
  
  <!-- Bamboo icons - top row -->
  <g transform="translate(25, 40)" fill="#1a7736">
    <rect x="-4" y="-25" width="8" height="50" rx="4" fill="#1a7736"/>
    <rect x="-6" y="-20" width="12" height="2" rx="1" fill="#115324"/>
    <rect x="-6" y="-10" width="12" height="2" rx="1" fill="#115324"/>
    <rect x="-6" y="0" width="12" height="2" rx="1" fill="#115324"/>
    <rect x="-6" y="10" width="12" height="2" rx="1" fill="#115324"/>
    <rect x="-6" y="20" width="12" height="2" rx="1" fill="#115324"/>
    <path d="M0,-25 C-12,-35 -12,-15 0,-20 C12,-35 12,-15 0,-20" fill="#4caf50"/>
  </g>
  
  <g transform="translate(50, 40)" fill="#1a7736">
    <rect x="-4" y="-25" width="8" height="50" rx="4" fill="#1a7736"/>
    <rect x="-6" y="-20" width="12" height="2" rx="1" fill="#115324"/>
    <rect x="-6" y="-10" width="12" height="2" rx="1" fill="#115324"/>
    <rect x="-6" y="0" width="12" height="2" rx="1" fill="#115324"/>
    <rect x="-6" y="10" width="12" height="2" rx="1" fill="#115324"/>
    <rect x="-6" y="20" width="12" height="2" rx="1" fill="#115324"/>
    <path d="M0,-25 C-12,-35 -12,-15 0,-20 C12,-35 12,-15 0,-20" fill="#4caf50"/>
  </g>
  
  <g transform="translate(75, 40)" fill="#1a7736">
    <rect x="-4" y="-25" width="8" height="50" rx="4" fill="#1a7736"/>
    <rect x="-6" y="-20" width="12" height="2" rx="1" fill="#115324"/>
    <rect x="-6" y="-10" width="12" height="2" rx="1" fill="#115324"/>
    <rect x="-6" y="0" width="12" height="2" rx="1" fill="#115324"/>
    <rect x="-6" y="10" width="12" height="2" rx="1" fill="#115324"/>
    <rect x="-6" y="20" width="12" height="2" rx="1" fill="#115324"/>
    <path d="M0,-25 C-12,-35 -12,-15 0,-20 C12,-35 12,-15 0,-20" fill="#4caf50"/>
  </g>
  
  <!-- Bamboo icons - bottom row -->
  <g transform="translate(25, 90)" fill="#1a7736">
    <rect x="-4" y="-25" width="8" height="50" rx="4" fill="#1a7736"/>
    <rect x="-6" y="-20" width="12" height="2" rx="1" fill="#115324"/>
    <rect x="-6" y="-10" width="12" height="2" rx="1" fill="#115324"/>
    <rect x="-6" y="0" width="12" height="2" rx="1" fill="#115324"/>
    <rect x="-6" y="10" width="12" height="2" rx="1" fill="#115324"/>
    <rect x="-6" y="20" width="12" height="2" rx="1" fill="#115324"/>
    <path d="M0,-25 C-12,-35 -12,-15 0,-20 C12,-35 12,-15 0,-20" fill="#4caf50"/>
  </g>
  
  <g transform="translate(50, 90)" fill="#1a7736">
    <rect x="-4" y="-25" width="8" height="50" rx="4" fill="#1a7736"/>
    <rect x="-6" y="-20" width="12" height="2" rx="1" fill="#115324"/>
    <rect x="-6" y="-10" width="12" height="2" rx="1" fill="#115324"/>
    <rect x="-6" y="0" width="12" height="2" rx="1" fill="#115324"/>
    <rect x="-6" y="10" width="12" height="2" rx="1" fill="#115324"/>
    <rect x="-6" y="20" width="12" height="2" rx="1" fill="#115324"/>
    <path d="M0,-25 C-12,-35 -12,-15 0,-20 C12,-35 12,-15 0,-20" fill="#4caf50"/>
  </g>
  
  <g transform="translate(75, 90)" fill="#1a7736">
    <rect x="-4" y="-25" width="8" height="50" rx="4" fill="#1a7736"/>
    <rect x="-6" y="-20" width="12" height="2" rx="1" fill="#115324"/>
    <rect x="-6" y="-10" width="12" height="2" rx="1" fill="#115324"/>
    <rect x="-6" y="0" width="12" height="2" rx="1" fill="#115324"/>
    <rect x="-6" y="10" width="12" height="2" rx="1" fill="#115324"/>
    <rect x="-6" y="20" width="12" height="2" rx="1" fill="#115324"/>
    <path d="M0,-25 C-12,-35 -12,-15 0,-20 C12,-35 12,-15 0,-20" fill="#4caf50"/>
  </g>
  
  <!-- Character -->
  <text x="50" y="120" font-family="Arial" font-size="16" fill="#cc0000" text-anchor="middle">六</text>
</svg>