<svg xmlns="http://www.w3.org/2000/svg" viewBox="0 0 100 140">
  <!-- Tile background -->
  <rect x="5" y="5" width="90" height="130" rx="5" ry="5" fill="#f0f0e0" stroke="#000" stroke-width="2"/>
  <rect x="10" y="10" width="80" height="120" rx="3" ry="3" fill="none" stroke="#8B4513" stroke-width="0.5" stroke-opacity="0.3"/>
  
  <!-- Summer symbol - Sun and beach scene -->
  <g transform="translate(50, 70)">
    <!-- Sun -->
    <circle cx="0" cy="-20" r="15" fill="#FFD700" stroke="#FF8C00" stroke-width="2"/>
    <path d="M 0,-40 V -45 M 15,-35 L 18,-40 M 25,-20 L 30,-22 M 15,-5 L 18,0 
             M 0,0 V 5 M -15,-5 L -18,0 M -25,-20 L -30,-22 M -15,-35 L -18,-40"
          fill="none" stroke="#FF8C00" stroke-width="2" stroke-linecap="round"/>
    
    <!-- Ocean waves -->
    <path d="M -40,30 C -30,25 -20,35 -10,30 C 0,25 10,35 20,30 C 30,25 40,35 50,30"
          fill="none" stroke="#4682B4" stroke-width="3" stroke-linecap="round"/>
    <path d="M -40,20 C -30,15 -20,25 -10,20 C 0,15 10,25 20,20 C 30,15 40,25 50,20"
          fill="none" stroke="#4682B4" stroke-width="3" stroke-linecap="round"/>
    
    <!-- Beach sand -->
    <path d="M -40,35 C -35,33 -30,36 -25,34 C -20,32 -15,35 -10,33 
             C -5,31 0,34 5,32 C 10,30 15,33 20,31 C 25,29 30,32 35,30 C 40,28 45,31 50,30
             L 50,40 L -40,40 Z"
          fill="#F5DEB3" stroke="#DEB887" stroke-width="1"/>
    
    <!-- Palm tree -->
    <path d="M -20,30 C -20,25 -20,20 -20,15 C -18,10 -16,5 -20,0"
          fill="none" stroke="#8B4513" stroke-width="3" stroke-linecap="round"/>
    <path d="M -20,0 C -25,-5 -30,-5 -35,-10 M -20,0 C -15,-5 -15,-10 -15,-15 M -20,0 C -25,0 -30,5 -35,0"
          fill="none" stroke="#228B22" stroke-width="2" stroke-linecap="round"/>
    
    <!-- Beach umbrella -->
    <path d="M 25,30 V 10"
          fill="none" stroke="#8B4513" stroke-width="2" stroke-linecap="round"/>
    <path d="M 25,10 L 10,20 L 40,20 Z"
          fill="#FF6347" stroke="#FF4500" stroke-width="1"/>
  </g>
  
  <!-- Chinese character for Summer (夏) -->
  <g transform="translate(50, 27) scale(0.35)">
    <path d="M -30,-30 H 30 M 0,-30 V 30 M -20,-10 H 20
             M -30,10 H 30 M -30,30 H 30"
          fill="none" stroke="#FF8C00" stroke-width="8" stroke-linecap="round" stroke-linejoin="round"/>
  </g>
  
  <!-- Season indicator -->
  <text x="15" y="30" font-family="Arial, sans-serif" font-size="12" font-weight="bold" fill="#FF8C00">Summer</text>
  
  <!-- Small number "6" indicating Seasons = 6 from the enum -->
  <text x="85" y="30" font-family="Arial, sans-serif" font-size="16" font-weight="bold" fill="#333">6</text>
</svg>